<svg width="1999" height="972" viewBox="0 0 1999 972" fill="none" xmlns="http://www.w3.org/2000/svg">
<g clip-path="url(#clip0_2_144)">
<path d="M403.72 648.717C400.405 649.954 397.435 649.973 394.809 648.774C392.182 647.575 389.773 645.206 387.581 641.666L324.108 538.109C321.55 533.979 320.792 530.195 321.833 526.757C323.002 523.27 325.69 520.742 329.897 519.173C333.085 517.983 335.992 517.988 338.618 519.187C341.324 520.211 343.709 522.517 345.774 526.104L401.546 620.115L393.896 622.97L407.911 500.525C408.379 496.719 409.372 493.734 410.888 491.57C412.485 489.231 414.813 487.491 417.873 486.35C420.806 485.256 423.458 485.356 425.829 486.65C428.28 487.769 430.649 490.226 432.936 494.02L488.758 587.578L481.872 590.147L495.242 467.724C495.63 464.094 496.519 461.22 497.908 459.104C499.25 456.86 501.515 455.144 504.702 453.955C509.42 452.195 513.178 452.535 515.977 454.977C518.777 457.419 519.861 461.299 519.231 466.618L503.572 601.006C503.103 604.812 502.007 607.908 500.283 610.294C498.639 612.505 496.095 614.253 492.653 615.538C489.338 616.774 486.367 616.793 483.741 615.594C481.115 614.395 478.706 612.026 476.514 608.486L423.644 521.671L428.043 520.03L414.639 634.186C414.171 637.992 413.138 641.064 411.542 643.403C409.897 645.614 407.29 647.385 403.72 648.717Z" fill="#C09FCB"/>
<path d="M585.235 579.259C580.645 580.971 576.878 580.997 573.934 579.336C570.99 577.674 569.005 574.493 567.977 569.793L544.518 454.357C543.681 450.166 544.053 446.687 545.635 443.918C547.296 440.974 550.103 438.765 554.056 437.29L621.568 412.102C624.883 410.865 627.695 410.615 630.003 411.352C632.264 411.961 633.87 413.54 634.821 416.09C636.201 419.788 636.187 423.061 634.781 425.91C633.502 428.711 631.141 430.754 627.699 432.038L569.749 453.659L577.663 492.974L629.684 473.565C632.999 472.328 635.747 472.102 637.927 472.886C640.188 473.495 641.794 475.075 642.746 477.625C644.125 481.322 644.112 484.595 642.705 487.444C641.426 490.245 639.066 492.288 635.623 493.572L581.881 513.623L590.197 555.185L646.234 534.278C649.549 533.041 652.361 532.791 654.669 533.527C656.93 534.136 658.536 535.716 659.488 538.266C660.867 541.963 660.854 545.237 659.447 548.085C658.168 550.886 655.807 552.929 652.365 554.214L585.235 579.259Z" fill="#C09FCB"/>
<path d="M701.964 535.71C697.629 537.328 693.926 537.329 690.854 535.716C687.863 533.927 685.877 530.746 684.897 526.173L661.438 410.737C660.601 406.546 660.973 403.067 662.555 400.298C664.216 397.354 667.023 395.145 670.976 393.67L714.39 377.473C724.335 373.762 732.955 372.144 740.249 372.618C747.495 372.965 753.489 375.014 758.229 378.765C762.922 382.388 766.433 387.324 768.764 393.571C772.38 403.262 772.293 412.372 768.503 420.903C764.714 429.434 758.133 436.32 748.758 441.56L747.617 438.5C756.603 436.891 764.453 437.883 771.169 441.478C777.884 445.073 782.717 450.823 785.666 458.728C790.566 471.861 789.965 483.487 783.863 493.607C777.714 503.6 766.99 511.45 751.69 517.158L701.964 535.71ZM707.283 512.592L743.621 499.035C752.418 495.753 758.247 491.326 761.108 485.756C764.096 480.139 764.21 473.633 761.451 466.238C759.263 460.373 755.645 456.711 750.599 455.253C745.68 453.748 739.523 454.374 732.127 457.134L698.658 469.621L707.283 512.592ZM694.797 449.927L727.501 437.726C736.044 434.539 741.96 430.152 745.251 424.567C748.541 418.982 748.831 412.556 746.119 405.288C744.169 400.061 740.822 396.734 736.078 395.309C731.461 393.835 725.264 394.55 717.486 397.452L686.503 409.011L694.797 449.927Z" fill="#C09FCB"/>
<path d="M1305.17 231.47C1303.98 228.05 1302.01 225.87 1299.31 225.02C1296.61 224.1 1292.92 224.49 1288.25 226.21L1274.03 231.28L1278.57 254.72L1295.43 248.66C1299.97 247.08 1303.07 244.77 1304.78 241.88C1306.49 238.92 1306.62 235.49 1305.18 231.48L1305.17 231.47ZM1305.17 231.47C1303.98 228.05 1302.01 225.87 1299.31 225.02C1296.61 224.1 1292.92 224.49 1288.25 226.21L1274.03 231.28L1278.57 254.72L1295.43 248.66C1299.97 247.08 1303.07 244.77 1304.78 241.88C1306.49 238.92 1306.62 235.49 1305.18 231.48L1305.17 231.47ZM1305.17 231.47C1303.98 228.05 1302.01 225.87 1299.31 225.02C1296.61 224.1 1292.92 224.49 1288.25 226.21L1274.03 231.28L1278.57 254.72L1295.43 248.66C1299.97 247.08 1303.07 244.77 1304.78 241.88C1306.49 238.92 1306.62 235.49 1305.18 231.48L1305.17 231.47ZM1305.17 231.47C1303.98 228.05 1302.01 225.87 1299.31 225.02C1296.61 224.1 1292.92 224.49 1288.25 226.21L1274.03 231.28L1278.57 254.72L1295.43 248.66C1299.97 247.08 1303.07 244.77 1304.78 241.88C1306.49 238.92 1306.62 235.49 1305.18 231.48L1305.17 231.47ZM1902.08 116.57H1902.01C1901.55 116.37 1901.02 116.17 1900.43 115.98C1828 126.78 1735.09 144.76 1721.33 136.85C1675.24 143.76 1638.03 147.98 1636.06 140.8C1630.33 120.58 1910.31 34.98 1904.72 14.83C1904.13 12.85 1900.97 11.67 1895.63 11.14C1861.06 16.28 1820.04 23.26 1778.55 30.37C1584.83 63.62 1456.36 95.89 1447.07 82.92C1395.31 92.07 1365.29 95.63 1362.98 88.65C1358.63 75.61 1456.15 39.07 1451.02 23.53C1450.1 20.57 1445.75 18.92 1439.04 18.13C1421.33 21.03 1405.33 24.06 1395.38 25.97C1336.05 37.23 1299.97 48.23 1236.82 65.61C1163.86 85.76 1081.75 108.35 1046.19 113.55L1016.3 122.04C973.89 129.55 946.11 133.3 936.16 130.53C935.17 130.27 934.38 129.94 933.72 129.54C933.39 129.34 933.06 129.08 932.86 128.82C932.53 128.49 932.33 128.16 932.2 127.77C932.07 127.44 932.07 127.18 932.07 126.78C932.07 126.45 932.14 126.12 932.27 125.79C932.34 125.53 932.47 125.26 932.67 124.93C932.8 124.6 933.07 124.21 933.33 123.81C933.53 123.41 933.86 123.02 934.25 122.62C948.01 107.15 1022.02 77.58 1020.38 63.42C1020.38 63.16 1020.38 62.89 1020.25 62.63C1019.33 59.73 1015.11 58.09 1008.53 57.3C1008.4 57.3 1008.33 57.23 1008.27 57.23C1009.32 57.03 1011.04 56.77 1013.08 56.44C1013.61 56.37 1014.13 56.24 1014.66 56.18C1009.79 55.98 1003.99 55.92 997.34 56.11H997.27C899.36 67.37 739.41 92.66 504.14 135C504.21 135.07 504.21 135.2 504.27 135.33C327.01 163.71 191.5 317.4 191.5 502.76C191.5 708.27 358.16 874.86 563.6 874.86C618.85 874.86 680.74 856.09 680.74 856.09C719.46 845.55 747.58 833.44 761.21 827.51C880.53 775.36 1131.01 665.92 1120.74 637.08C1114.95 620.82 1030.92 642.94 1028.29 632.67C1028.16 632.08 1028.22 631.48 1028.55 630.76C1005.77 626.22 946.83 640.04 944.59 631.55C937.68 605.67 1451.88 462.45 1442.26 414.39C1438.84 397.47 1367.52 408 1362.98 388.31C1357.98 367.04 1435.15 330.3 1633.81 245.36C1655.61 236.08 1678.85 226.2 1703.67 215.66C1790.13 178.98 1846.89 155.15 1877.38 139.67C1877.51 139.6 1877.64 139.54 1877.78 139.47C1879.29 138.68 1880.74 137.96 1882.19 137.23C1883.05 136.83 1883.84 136.37 1884.63 135.98C1889.24 133.48 1892.99 131.17 1896.02 129.2C1896.55 128.94 1897.01 128.54 1897.47 128.21C1897.47 128.21 1897.54 128.21 1897.54 128.14C1902.94 124.32 1905.31 121.36 1904.72 119.12V119.05C1904.59 118.59 1904.32 118.13 1903.93 117.86C1903.47 117.33 1902.88 116.94 1902.09 116.54L1902.08 116.57ZM658.29 783.08C629.58 792.43 598.96 797.5 567.16 797.5C404.91 797.5 273.42 666 273.42 503.76C273.42 356.53 381.61 234.71 522.78 213.31C537.27 211.14 552.08 209.95 567.16 209.95C729.41 209.95 860.9 341.51 860.9 503.76C860.9 634.2 775.89 744.69 658.29 783.08ZM983.9 393.13C982.71 399.06 980.01 404.19 975.74 408.54C971.53 412.95 965.6 416.51 957.96 419.21C952.96 421.05 948.08 421.98 943.47 421.98C938.86 421.98 934.58 420.99 930.7 418.95C926.88 416.97 923.59 413.88 920.95 409.8C918.25 405.65 916.27 400.38 915.09 393.93L907.78 355.08C907.32 352.25 907.58 349.94 908.64 348.1C909.76 346.19 911.67 344.81 914.3 343.82C917.26 342.77 919.63 342.83 921.48 343.95C923.32 345.14 924.58 347.37 925.23 350.6L932.54 388.92C933.92 395.77 936.42 400.51 939.98 403.21C943.6 405.91 948.28 406.24 953.94 404.2C959.27 402.29 963.03 399.33 965.2 395.38C967.37 391.43 967.83 386.16 966.65 379.77L958.55 336.97C958.09 334.07 958.35 331.77 959.41 329.92C960.46 328.08 962.31 326.63 965.07 325.64C967.9 324.65 970.21 324.72 972.12 325.84C973.96 327.03 975.22 329.2 975.81 332.56L983.58 373.06C984.96 380.57 985.09 387.22 983.91 393.14L983.9 393.13ZM1071.21 376.34C1070.42 378.05 1068.97 379.24 1066.93 379.96C1064.69 380.75 1062.72 380.95 1061.14 380.62C1059.49 380.22 1057.72 379.3 1055.81 377.79L1010.77 340.65L1019.79 387.99C1020.25 390.76 1020.05 393.06 1019.2 394.84C1018.34 396.62 1016.57 398 1013.8 398.99C1011.3 399.91 1009.06 399.78 1007.15 398.59C1005.24 397.4 1003.99 395.23 1003.4 392.01L990.69 324.65C990.23 321.95 990.49 319.84 991.48 318.2C992.4 316.55 993.92 315.3 996.02 314.58C998.19 313.79 1000.04 313.59 1001.49 313.99C1002.94 314.45 1004.59 315.37 1006.49 316.89L1051.6 354.09L1042.58 306.75C1042.05 303.92 1042.32 301.55 1043.37 299.77C1044.49 297.99 1046.33 296.61 1048.97 295.62C1051.54 294.7 1053.64 294.9 1055.42 296.08C1057.2 297.27 1058.38 299.5 1059.04 302.6L1071.62 369.96C1072.15 372.59 1072.02 374.7 1071.22 376.35L1071.21 376.34ZM1103.74 364.29C1102.75 366.33 1100.78 367.85 1097.81 368.9C1094.85 369.95 1092.41 369.82 1090.57 368.5C1088.73 367.18 1087.47 364.81 1086.82 361.39L1074.51 296.07C1073.92 293.04 1074.18 290.6 1075.23 288.63C1076.35 286.59 1078.32 285.07 1081.22 284.09C1084.18 283.04 1086.55 283.1 1088.33 284.42C1090.17 285.67 1091.43 288.11 1092.08 291.66L1104.39 356.85C1104.98 359.81 1104.72 362.32 1103.73 364.29H1103.74ZM1177.95 263.02L1162.54 339.07C1162.01 341.57 1161.16 343.61 1160.04 345.06C1158.92 346.51 1157.21 347.63 1154.97 348.42C1152.47 349.34 1150.23 349.41 1148.25 348.75C1146.27 348.09 1144.5 346.64 1142.92 344.47L1103.08 289.22C1101.7 287.24 1101.04 285.47 1100.97 283.75C1100.97 282.04 1101.43 280.46 1102.42 279.08C1103.47 277.63 1104.86 276.58 1106.7 275.92C1108.94 275.13 1110.98 275.06 1112.76 275.59C1114.54 276.18 1116.32 277.76 1118.09 280.4L1148.77 324.58L1160.29 263.54C1160.88 260.91 1161.67 258.87 1162.73 257.48C1163.72 256.03 1165.36 254.91 1167.6 254.12C1169.97 253.26 1172.01 253.2 1173.72 253.86C1175.37 254.52 1176.62 255.64 1177.41 257.22C1178.2 258.87 1178.4 260.78 1177.94 263.01L1177.95 263.02ZM1255.32 309.11C1254.4 311.02 1252.69 312.47 1250.25 313.32L1212.39 326.88C1209.16 328 1206.6 328 1204.55 326.81C1202.57 325.62 1201.19 323.39 1200.53 320.03L1188.41 256.16C1187.88 253.2 1188.15 250.76 1189.27 248.79C1190.39 246.75 1192.36 245.3 1195.2 244.25L1233.33 230.62C1235.63 229.83 1237.54 229.63 1239.12 230.16C1240.7 230.69 1241.75 231.81 1242.41 233.52C1243.27 236.09 1243.27 238.33 1242.34 240.24C1241.35 242.15 1239.71 243.6 1237.27 244.45L1205.93 255.64L1209.62 275.13L1237.28 265.19C1239.58 264.4 1241.49 264.27 1243.01 264.79C1244.59 265.32 1245.64 266.5 1246.3 268.28C1247.22 270.78 1247.16 273.02 1246.23 274.93C1245.24 276.77 1243.6 278.16 1241.16 279.08L1212.32 289.35L1216.34 310.22L1246.3 299.49C1248.6 298.63 1250.51 298.5 1252.09 298.96C1253.67 299.49 1254.72 300.61 1255.38 302.38C1256.3 304.95 1256.24 307.19 1255.31 309.1L1255.32 309.11ZM1331.7 283.63C1330.65 285.01 1328.93 286.13 1326.43 287.05C1324.19 287.84 1322.08 287.91 1320.31 287.25C1318.53 286.53 1316.62 285.08 1314.71 282.84L1301.87 267.76C1300.22 265.72 1298.51 264.53 1296.73 264.07C1294.95 263.61 1292.78 263.81 1290.28 264.73L1281.19 268.02L1285.73 291.92C1286.32 294.95 1286.06 297.52 1284.87 299.56C1283.68 301.54 1281.64 303.05 1278.81 304.1C1276.11 305.02 1273.81 304.89 1271.9 303.57C1269.99 302.32 1268.67 299.95 1268.01 296.46L1255.83 232.39C1255.3 229.16 1255.63 226.6 1256.75 224.62C1257.94 222.58 1259.98 221.06 1262.87 220.01L1286.18 211.65C1295 208.55 1302.44 208.09 1308.44 210.33C1314.5 212.57 1318.71 217.18 1321.21 224.09C1323.32 230.02 1323.78 235.35 1322.53 240.16C1321.28 244.9 1318.71 249.05 1314.83 252.54C1313.05 254.12 1311.01 255.57 1308.84 256.82C1310.35 256.82 1311.74 257.08 1313.05 257.61C1316.01 258.8 1318.84 260.9 1321.41 263.87L1329.57 273.42C1331.41 275.46 1332.47 277.37 1332.8 279.02C1333.13 280.73 1332.73 282.25 1331.68 283.63H1331.7ZM1402.95 243.79C1402.23 247.61 1400.71 251.17 1398.34 254.46C1395.9 257.69 1392.94 260.52 1389.32 263.02C1385.76 265.46 1381.68 267.5 1377.07 269.14C1374.17 270.19 1371.14 271.05 1367.85 271.77C1364.62 272.49 1361.4 272.89 1358.17 272.96C1355.01 273.03 1351.91 272.89 1348.82 272.5C1346.71 272.17 1345.07 271.38 1344.01 270.2C1342.96 268.95 1342.23 267.57 1341.9 265.92C1341.5 264.27 1341.57 262.76 1342.16 261.24C1342.69 259.79 1343.67 258.61 1345.12 257.75C1346.5 256.89 1348.28 256.56 1350.52 256.89C1354.54 257.48 1358.55 257.42 1362.57 256.82C1366.59 256.23 1370.27 255.37 1373.57 254.19C1378.38 252.41 1381.8 250.24 1383.84 247.67C1385.88 245.04 1386.41 242.34 1385.42 239.57C1384.63 237.53 1383.25 236.08 1381.14 235.22C1379.03 234.36 1376 234.17 1371.99 234.69L1358.56 236.27C1352.57 236.86 1347.37 236.07 1342.89 233.83C1338.35 231.53 1335.19 227.71 1333.21 222.31C1331.76 218.29 1331.37 214.41 1331.96 210.65C1332.62 206.9 1334 203.34 1336.17 200.05C1338.34 196.76 1341.11 193.86 1344.6 191.36C1348.02 188.92 1351.97 186.88 1356.32 185.3C1360.07 183.92 1364.29 183 1368.96 182.34C1373.57 181.75 1378.11 181.94 1382.66 182.93C1384.44 183.19 1385.89 183.92 1387.01 185.17C1388.06 186.36 1388.79 187.67 1389.12 189.19C1389.45 190.64 1389.32 192.09 1388.79 193.47C1388.2 194.85 1387.21 195.91 1385.69 196.76C1384.18 197.62 1382.13 197.88 1379.57 197.62C1376.61 197.16 1373.58 197.16 1370.35 197.62C1367.12 198.02 1364.09 198.74 1361.39 199.73C1358.29 200.85 1355.79 202.17 1353.82 203.75C1351.78 205.4 1350.4 207.11 1349.67 208.95C1348.95 210.79 1348.95 212.64 1349.6 214.55C1350.46 216.85 1351.84 218.37 1353.75 219.16C1355.73 219.95 1358.29 220.15 1361.45 219.88L1374.88 218.3C1381.86 217.58 1387.59 218.37 1392.2 220.67C1396.74 222.97 1399.97 226.66 1401.75 231.6C1403.26 235.88 1403.66 239.9 1402.94 243.78L1402.95 243.79ZM1471.04 231.87C1470.05 233.78 1468.41 235.23 1465.9 236.08L1428.04 249.64C1424.88 250.76 1422.25 250.76 1420.27 249.57C1418.23 248.45 1416.91 246.15 1416.19 242.79L1404.07 178.92C1403.54 175.96 1403.87 173.52 1404.99 171.55C1406.11 169.57 1408.08 168.06 1410.85 167.01L1448.98 153.38C1451.28 152.59 1453.19 152.46 1454.77 152.98C1456.35 153.51 1457.47 154.63 1458.06 156.34C1458.98 158.84 1458.92 161.08 1457.99 162.99C1457.07 164.9 1455.36 166.35 1452.92 167.2L1421.58 178.39L1425.27 197.88L1452.99 187.94C1455.23 187.15 1457.2 187.02 1458.72 187.54C1460.24 188.06 1461.35 189.25 1461.95 191.03C1462.87 193.53 1462.87 195.77 1461.88 197.68C1460.96 199.59 1459.25 200.91 1456.81 201.83L1428.03 212.1L1431.98 232.97L1462.01 222.24C1464.25 221.45 1466.22 221.25 1467.74 221.78C1469.32 222.24 1470.44 223.36 1471.03 225.14C1471.95 227.71 1471.95 229.95 1471.03 231.86L1471.04 231.87ZM1299.31 225.02C1296.61 224.1 1292.92 224.49 1288.25 226.21L1274.03 231.28L1278.57 254.72L1295.43 248.66C1299.97 247.08 1303.07 244.77 1304.78 241.88C1306.49 238.92 1306.62 235.49 1305.18 231.48C1303.99 228.06 1302.02 225.88 1299.32 225.03L1299.31 225.02ZM1305.17 231.47C1303.98 228.05 1302.01 225.87 1299.31 225.02C1296.61 224.1 1292.92 224.49 1288.25 226.21L1274.03 231.28L1278.57 254.72L1295.43 248.66C1299.97 247.08 1303.07 244.77 1304.78 241.88C1306.49 238.92 1306.62 235.49 1305.18 231.48L1305.17 231.47ZM1305.17 231.47C1303.98 228.05 1302.01 225.87 1299.31 225.02C1296.61 224.1 1292.92 224.49 1288.25 226.21L1274.03 231.28L1278.57 254.72L1295.43 248.66C1299.97 247.08 1303.07 244.77 1304.78 241.88C1306.49 238.92 1306.62 235.49 1305.18 231.48L1305.17 231.47ZM1305.17 231.47C1303.98 228.05 1302.01 225.87 1299.31 225.02C1296.61 224.1 1292.92 224.49 1288.25 226.21L1274.03 231.28L1278.57 254.72L1295.43 248.66C1299.97 247.08 1303.07 244.77 1304.78 241.88C1306.49 238.92 1306.62 235.49 1305.18 231.48L1305.17 231.47ZM1305.17 231.47C1303.98 228.05 1302.01 225.87 1299.31 225.02C1296.61 224.1 1292.92 224.49 1288.25 226.21L1274.03 231.28L1278.57 254.72L1295.43 248.66C1299.97 247.08 1303.07 244.77 1304.78 241.88C1306.49 238.92 1306.62 235.49 1305.18 231.48L1305.17 231.47ZM1452.47 392.93C1451.68 392.53 1451.02 392.01 1450.36 391.48C1449.7 391.02 1449.17 390.43 1448.71 389.9C1448.31 389.44 1447.99 388.98 1447.66 388.52C1447.86 388.98 1448.19 389.38 1448.52 389.9C1449.24 390.89 1450.1 391.74 1451.09 392.4C1451.16 392.47 1451.22 392.47 1451.29 392.6C1452.15 393.13 1453.13 393.59 1454.12 393.92C1453.53 393.52 1453 393.2 1452.47 392.93ZM1128.96 584.81C1136.93 581.85 1145.29 578.82 1153.85 575.66C1145.29 578.76 1136.93 581.78 1128.96 584.81ZM1070.69 607.53C1075.23 605.62 1080.17 603.64 1085.31 601.54C1080.17 603.58 1075.24 605.56 1070.69 607.53ZM1033.16 52.31C1035.53 52.11 1037.84 51.91 1040.07 51.78C1040.27 51.71 1040.4 51.65 1040.6 51.65C1038.23 51.85 1035.73 52.11 1033.16 52.31Z" fill="#C09FCB"/>
<path d="M1539.52 35.32C1534.19 50.33 1510.42 47.04 1471.89 68.24C1467.02 70.94 1463.13 73.31 1460.56 74.96C1458.39 76.47 1456.02 77.99 1453.38 79.5C1451.21 80.75 1449.03 81.94 1447.06 82.92C1395.3 92.07 1365.28 95.63 1362.97 88.65C1358.62 75.61 1456.14 39.07 1451.01 23.53C1450.09 20.57 1445.74 18.92 1439.03 18.13C1440.08 17.93 1441.8 17.67 1443.84 17.34C1445.16 17.14 1446.47 16.88 1447.73 16.68C1448.65 16.55 1449.57 16.42 1450.43 16.22C1482.89 10.69 1491.78 7.85996 1508.05 8.05996C1528.46 8.25996 1533.34 12.93 1535.11 14.97C1539.06 19.51 1542.16 27.88 1539.52 35.32Z" fill="#674287"/>
<path d="M1109.64 67.82C1109.64 67.82 1109.71 71.29 1108.72 74.4C1104.74 86.93 1075.34 92.23 1041.09 107.32C1035.24 109.9 1029.32 112.73 1029.7 114.1C1030.15 115.69 1038.97 114.62 1046.16 113.51C1038.79 115.97 1028.59 119.1 1016.27 122C984.37 129.53 934.98 136.37 932.18 127.73C928.09 115.11 1024.59 73.21 1020.22 62.61C1019 59.65 1009.26 57.44 1008.24 57.21C1002.27 55.85 997.32 56.4 997.31 56.09C997.29 55.7 1005.21 55.06 1008.7 54.77C1008.7 54.77 1011.02 54.58 1033.13 52.27C1049.29 50.58 1059.38 48.61 1077.25 47.13C1077.25 47.13 1084.07 46.04 1095.42 49.17C1101.15 50.75 1103.26 52.86 1104.31 54.04C1107.14 57.27 1109.51 62.4 1109.64 67.8V67.82Z" fill="#674287"/>
<path d="M1997.99 27.26C1994.5 37.14 1983.04 39.11 1964.67 45.24C1964.6 45.31 1964.47 45.31 1964.41 45.31C1944.26 50.05 1923.78 55.12 1902.84 60.65C1875.71 67.83 1849.44 75.27 1824.02 82.91C1766.8 105.43 1717.22 126.24 1719.65 134.99C1719.91 135.71 1720.44 136.37 1721.3 136.83C1675.21 143.74 1638 147.96 1636.03 140.78C1630.3 120.56 1910.28 34.96 1904.69 14.81C1904.1 12.83 1900.94 11.65 1895.6 11.12C1896.12 11.05 1896.93 10.93 1897.93 10.79C1935.27 5.43997 1944.96 -0.0400265 1966.51 -2.64798e-05C1986.36 0.0399735 1991.62 4.66997 1993.57 6.90997C1997.52 11.45 2000.62 19.82 1997.98 27.26H1997.99Z" fill="#674287"/>
<path d="M151.86 497.58C145.83 276.77 303.71 85.16 522 50.06C547.04 46.03 536.41 7.96001 511.5 11.96C276.45 49.76 105.88 260.54 112.35 497.58C113.04 522.95 152.55 523.05 151.86 497.58Z" fill="url(#paint0_linear_2_144)"/>
<path d="M211.38 782.76C353.39 962.75 593.35 1012.17 805.15 939C829.04 930.75 818.77 892.57 794.65 900.9C594.96 969.88 373.32 924.66 239.32 754.82C223.58 734.87 195.79 763 211.38 782.76Z" fill="url(#paint1_linear_2_144)"/>
<path d="M856.21 857.11C905.04 838.31 953.87 819.52 1002.69 800.72C1026.17 791.68 1015.97 753.47 992.19 762.62C943.36 781.42 894.53 800.21 845.71 819.01C822.23 828.05 832.43 866.26 856.21 857.11Z" fill="#674287"/>
<path d="M617.05 90.14C667.73 77.15 718.41 64.16 769.1 51.17C793.71 44.86 783.28 6.75002 758.6 13.07C707.92 26.06 657.24 39.05 606.55 52.04C581.94 58.35 592.37 96.46 617.05 90.14Z" fill="#674287"/>
<path d="M1606.74 385.49C1633.08 372.8 1659.42 360.1 1685.76 347.41C1708.66 336.37 1688.64 302.3 1665.82 313.3C1639.48 325.99 1613.14 338.69 1586.8 351.38C1563.9 362.42 1583.92 396.49 1606.74 385.49Z" fill="#674287"/>
<path d="M1996.31 126.45C1996.24 128.82 1995.78 131.06 1995.06 133.1C1993.87 136.46 1991.9 139.29 1989.53 141.59C1980.97 149.89 1968.72 152.85 1968.72 152.85C1926.58 162.46 1724.49 238.12 1717.05 241.35C1712.97 243.06 1708.36 245.1 1708.36 245.1C1706.52 245.89 1704.67 246.68 1702.76 247.54C1700.85 248.4 1693.54 251.56 1683.66 255.84C1671.22 261.24 1659.3 266.51 1647.9 271.51C1642.24 274.01 1636.71 276.45 1631.24 278.88C1612.28 287.31 1594.89 295.08 1579.09 302.39C1574.55 304.43 1570.13 306.47 1565.85 308.45C1559.46 311.41 1553.34 314.31 1547.48 317.14C1535.76 322.67 1525.16 327.87 1515.61 332.75C1512.38 334.33 1509.35 335.91 1506.39 337.49C1503.43 339 1500.6 340.52 1497.9 341.97C1495.13 343.42 1492.57 344.87 1490.06 346.32C1487.56 347.7 1485.19 349.09 1482.88 350.4C1479.52 352.38 1476.36 354.29 1473.46 356.19C1470.56 358.03 1467.86 359.81 1465.43 361.52C1463.85 362.64 1462.33 363.76 1460.95 364.88C1459.5 365.93 1458.25 366.99 1457.06 368.04C1455.81 369.09 1454.76 370.08 1453.77 371.07C1447.91 376.86 1445.67 381.74 1446.66 386.02C1446.73 386.35 1446.86 386.81 1447.06 387.27C1447.19 387.53 1447.26 387.8 1447.46 388.06C1447.46 388.13 1447.53 388.19 1447.53 388.26C1447.6 388.33 1447.6 388.46 1447.66 388.52C1447.86 388.98 1448.19 389.38 1448.52 389.9C1449.24 390.89 1450.1 391.74 1451.09 392.4C1451.16 392.47 1451.22 392.53 1451.29 392.6C1452.15 393.13 1453.13 393.59 1454.12 393.92C1454.38 394.05 1454.65 394.12 1454.91 394.18H1454.98C1471.44 399.12 1505.42 382 1520.96 396.48C1526.56 401.68 1528.73 409.91 1527.54 416.23C1525.96 424.99 1517.86 430.19 1507.79 435.98C1496 442.83 1479.61 451.52 1458.8 460.34C1457.94 460.8 1457.02 461.13 1456.17 461.53C1450.77 463.97 1445.17 466.47 1439.38 468.97C1436.35 470.22 1433.26 471.54 1430.1 472.92C1427.47 473.97 1424.83 475.09 1422.2 476.21C1420.16 477 1418.18 477.86 1416.08 478.71C1412.66 480.09 1409.17 481.54 1405.61 482.99C1400.87 484.9 1396 486.81 1390.99 488.78C1386.05 490.69 1381.05 492.67 1375.98 494.64C1370.58 496.68 1365.12 498.79 1359.58 500.9C1355.23 502.55 1350.82 504.19 1346.41 505.9C1337.06 509.39 1327.51 512.88 1317.9 516.5C1314.81 517.62 1311.64 518.74 1308.48 519.92C1296.17 524.4 1283.72 528.94 1271.34 533.42C1269.17 534.14 1266.99 534.93 1264.89 535.72C1261.2 537.04 1257.52 538.35 1253.89 539.67C1251.72 540.39 1249.61 541.18 1247.44 541.97C1241.84 543.95 1236.31 545.92 1230.78 547.96C1230.58 547.96 1230.38 548.09 1230.12 548.16C1224.59 550.14 1219.12 552.11 1213.66 554.09C1210.63 555.14 1207.67 556.2 1204.64 557.32C1198.25 559.56 1192 561.8 1185.74 564.1C1182.12 565.35 1178.5 566.67 1174.94 567.99C1168.49 570.29 1162.23 572.53 1156.04 574.84C1155.32 575.1 1154.59 575.37 1153.87 575.63C1145.31 578.73 1136.95 581.75 1128.98 584.78C1127.4 585.31 1125.82 585.9 1124.24 586.56C1121.08 587.68 1117.98 588.86 1114.96 590.05C1111.14 591.5 1107.45 592.88 1103.83 594.26C1100.21 595.64 1096.65 597.03 1093.29 598.34C1093.22 598.34 1093.16 598.41 1093.09 598.41C1091.05 599.2 1089.01 599.99 1087.1 600.78C1086.51 601.04 1085.91 601.24 1085.32 601.5C1080.18 603.54 1075.25 605.52 1070.7 607.49C1068.4 608.41 1066.22 609.33 1064.05 610.32C1062.73 610.91 1061.42 611.44 1060.17 612.03C1057.6 613.15 1055.23 614.27 1052.93 615.32C1049.57 616.9 1046.48 618.41 1043.71 619.86C1041.87 620.78 1040.15 621.77 1038.64 622.63C1037.72 623.16 1036.8 623.68 1036.01 624.21C1034.69 625.07 1033.51 625.86 1032.52 626.65C1032.12 626.91 1031.73 627.18 1031.4 627.51C1030.68 628.1 1030.08 628.7 1029.69 629.22C1029.43 629.48 1029.23 629.68 1029.1 629.94C1028.84 630.2 1028.7 630.47 1028.57 630.73C1005.79 626.19 946.85 640.01 944.61 631.52C937.7 605.64 1451.9 462.42 1442.28 414.36C1438.86 397.44 1367.54 407.97 1363 388.28C1358 367.01 1435.17 330.27 1633.83 245.33C1655.63 236.05 1678.87 226.17 1703.69 215.63C1790.15 178.95 1846.91 155.12 1877.4 139.64C1877.53 139.57 1877.66 139.51 1877.8 139.44C1879.38 138.72 1880.83 137.93 1882.21 137.2C1883.07 136.8 1883.86 136.34 1884.65 135.95C1889.33 133.51 1893.14 131.28 1896.04 129.17C1896.57 128.91 1897.03 128.51 1897.49 128.18C1897.49 128.18 1897.56 128.18 1897.56 128.11C1902.96 124.29 1905.33 121.33 1904.74 119.09V119.02C1904.61 118.56 1904.34 118.1 1903.95 117.83C1903.49 117.3 1902.9 116.91 1902.11 116.51H1902.04C1901.58 116.31 1901.05 116.11 1900.46 115.92C1901.84 115.72 1903.69 115.46 1905.79 115.13C1909.81 114.54 1913.1 114.08 1915.21 113.81C1918.5 113.28 1921.14 112.95 1922.39 112.82C1922.85 112.75 1923.11 112.69 1923.18 112.69C1923.31 112.69 1923.38 112.69 1923.51 112.62C1926.08 112.29 1928.84 111.7 1931.87 110.91C1932.53 110.84 1933.12 110.71 1933.78 110.51C1952.28 105.97 1976.58 97.54 1988.5 106.69C1994.16 111.04 1996.73 119.14 1996.34 126.38L1996.31 126.45Z" fill="#674287"/>
</g>
<defs>
<linearGradient id="paint0_linear_2_144" x1="112.18" y1="264.16" x2="536.3" y2="264.16" gradientUnits="userSpaceOnUse">
<stop offset="0.27" stop-color="#C09FCB"/>
<stop offset="1" stop-color="#674287"/>
</linearGradient>
<linearGradient id="paint1_linear_2_144" x1="206.78" y1="859.76" x2="818.72" y2="859.76" gradientUnits="userSpaceOnUse">
<stop offset="0.27" stop-color="#C09FCB"/>
<stop offset="1" stop-color="#674287"/>
</linearGradient>
<clipPath id="clip0_2_144">
<rect width="1998.97" height="971.54" fill="white"/>
</clipPath>
</defs>
</svg>
